<?xml version="1.0" standalone="no"?>
<!DOCTYPE svg PUBLIC "-//W3C//DTD SVG 20010904//EN"
 "http://www.w3.org/TR/2001/REC-SVG-20010904/DTD/svg10.dtd">
<svg version="1.0" xmlns="http://www.w3.org/2000/svg"
 width="1200.000000pt" height="1200.000000pt" viewBox="0 0 1200.000000 1200.000000"
 preserveAspectRatio="xMidYMid meet">

<g transform="translate(0.000000,1200.000000) scale(0.100000,-0.100000)"
fill="#000000" stroke="none">
<path d="M5780 8994 c-19 -2 -80 -9 -135 -15 -526 -55 -1093 -293 -1525 -639
-135 -108 -352 -325 -460 -460 -288 -360 -497 -799 -594 -1251 -77 -353 -86
-769 -25 -1129 84 -496 304 -985 624 -1385 102 -128 322 -348 450 -450 434
-347 936 -562 1500 -642 178 -25 596 -25 770 0 570 82 1058 290 1495 638 132
105 350 323 455 454 355 443 577 971 647 1535 19 157 16 584 -5 739 -78 553
-297 1066 -637 1491 -108 135 -325 352 -460 460 -422 338 -939 560 -1480 635
-109 15 -540 28 -620 19z m491 -295 c1016 -104 1887 -767 2258 -1719 77 -196
127 -391 162 -625 21 -138 19 -599 -4 -740 -67 -416 -202 -773 -419 -1102 -77
-118 -159 -226 -165 -219 -2 2 -11 33 -19 67 -117 510 -446 981 -893 1280
-108 72 -335 188 -449 229 l-63 23 -88 -41 c-200 -93 -378 -133 -591 -133
-211 0 -393 40 -590 132 l-89 42 -63 -23 c-35 -12 -126 -53 -203 -90 -571
-277 -988 -795 -1140 -1419 l-18 -74 -29 34 c-54 64 -205 295 -260 399 -147
274 -242 564 -295 895 -23 141 -25 602 -4 740 56 373 165 694 336 990 314 544
795 958 1375 1184 240 94 435 139 745 175 73 8 412 5 506 -5z"/>
<path d="M5780 8120 c-223 -47 -406 -152 -567 -324 -135 -145 -222 -314 -263
-517 -29 -136 -24 -339 10 -469 110 -417 447 -727 865 -795 551 -90 1071 250
1215 795 34 130 39 333 10 469 -42 208 -128 374 -272 526 -161 170 -354 277
-578 319 -112 22 -311 20 -420 -4z"/>
</g>
</svg>
